<?xml version="1.0" encoding="utf-8"?>
<!-- Generator: Adobe Illustrator 21.0.0, SVG Export Plug-In . SVG Version: 6.00 Build 0)  -->
<svg version="1.1" xmlns="http://www.w3.org/2000/svg" xmlns:xlink="http://www.w3.org/1999/xlink" x="0px" y="0px"
	 viewBox="0 0 1505.7 1199.8" style="enable-background:new 0 0 1505.7 1199.8;" xml:space="preserve">
<style type="text/css">
	.st0{fill:#0E69F7;}
</style>
<g id="P">
</g>
<g id="C">
</g>
<g id="B_1_">
</g>
<g id="B">
	<g>
		<path class="st0" d="M849.8,812.2c0-1.2,1-2.3,2.3-2.3H881c14.8,0,26.9,12,26.9,26.5c0,14.9-12.1,27-26.8,27h-12.6v28.2
			c0,1.2-1.1,2.3-2.3,2.3h-14.2c-1.3,0-2.3-1.1-2.3-2.3V812.2z M879.9,845.9c5.2,0,9.5-4.1,9.5-9.5c0-5-4.3-8.9-9.5-8.9h-11.4v18.4
			H879.9z"/>
		<path class="st0" d="M885.6,556.7c12,0,20.9,3.7,29,11.2c1.1,1,1.1,2.4,0.1,3.4l-9.4,9.7c-0.8,0.8-2.2,0.8-3,0
			c-4.4-4-10.3-6.1-16.2-6.1c-13.6,0-23.5,11.3-23.5,24.7c0,13.3,10.1,24.4,23.6,24.4c5.6,0,11.8-2,16.1-5.8
			c0.8-0.7,2.4-0.7,3.1,0.1l9.4,10c0.8,0.8,0.7,2.4-0.1,3.2c-8.2,7.9-18.5,11.6-29.2,11.6c-24,0-43.3-19.1-43.3-43.1
			S861.6,556.7,885.6,556.7z"/>
		<path class="st0" d="M597.8,308.2c0-1.2,1-2.3,2.3-2.3h28c14.2,0,25.8,9.7,25.8,22.3c0,9.2-8.3,16-13.9,19
			c6.4,2.6,16.1,8.5,16.1,19.6c0,13.4-11.9,23.2-26.2,23.2H600c-1.3,0-2.3-1.1-2.3-2.3V308.2z M625.8,340c4.6,0,8.4-3.8,8.4-8.6
			s-3.8-8.2-8.4-8.2h-9.4V340H625.8z M627.4,372.7c4.7,0,8.6-3.8,8.6-8.8c0-4.8-5.2-8.4-9.8-8.4h-9.7v17.2H627.4z"/>
		<path class="st0" d="M762.5,464.2v-252h-272v272h252v231.7v20v252.3h272V735.9v-20V464.2H762.5z M510.5,464.2v-232h232v232H510.5z
			 M994.5,968.2h-232v-232h232V968.2z M762.5,716.2v-232h232v232H762.5z"/>
	</g>
</g>
</svg>
